<svg width="118" height="118" viewBox="0 0 118 118" fill="none" xmlns="http://www.w3.org/2000/svg">
<path fill-rule="evenodd" clip-rule="evenodd" d="M94 89.6923C88.5177 89.6923 84 94.2795 84 99.8462C84 105.413 88.5177 110 94 110H104C109.482 110 114 105.413 114 99.8462C114 94.2795 109.482 89.6923 104 89.6923H94ZM94 96.4615H104C105.904 96.4615 107.333 97.9126 107.333 99.8462C107.333 101.78 105.904 103.231 104 103.231H94C92.0957 103.231 90.6667 101.78 90.6667 99.8462C90.6667 97.9126 92.0957 96.4615 94 96.4615ZM99 66C93.5166 66 89 70.5861 89 76.1538C89 81.7216 93.5166 86.3077 99 86.3077C104.483 86.3077 109 81.7216 109 76.1538C109 70.5861 104.483 66 99 66ZM99 72.7692C100.88 72.7692 102.333 74.2445 102.333 76.1538C102.333 78.0632 100.88 79.5385 99 79.5385C97.1196 79.5385 95.6667 78.0632 95.6667 76.1538C95.6667 74.2445 97.1196 72.7692 99 72.7692Z" fill="#FF5600"/>
<path fill-rule="evenodd" clip-rule="evenodd" d="M48.2603 22.9673C47.3641 22.9673 46.5046 23.3199 45.8708 23.9477C45.237 24.5754 44.881 25.4269 44.881 26.3147C44.881 27.2025 45.237 28.0539 45.8708 28.6816C46.5046 29.3094 47.3641 29.6621 48.2603 29.6621H88.8129C94.4521 29.6621 98.951 34.1185 98.951 39.7044V43.0518C98.951 48.6376 94.4521 53.094 88.8129 53.094H31.3634C20.2052 53.094 11.0872 62.1259 11.0872 73.1785V76.5259C11.0872 87.5786 20.2052 96.6104 31.3634 96.6104H60.3324L59.3885 97.5454C58.7549 98.1731 58.399 99.0244 58.399 99.9121C58.399 100.8 58.7549 101.651 59.3885 102.279C60.0223 102.906 60.8817 103.259 61.7779 103.259C62.674 103.259 63.5335 102.906 64.1672 102.279L70.9259 95.584C71.5595 94.9562 71.9154 94.1049 71.9154 93.2173C71.9154 92.3296 71.5595 91.4783 70.9259 90.8505L64.1672 84.1557C63.5335 83.5279 62.6741 83.1751 61.7779 83.175C60.8816 83.1751 60.0222 83.5279 59.3885 84.1557C58.7549 84.7834 58.399 85.6348 58.399 86.5224C58.399 87.4101 58.7549 88.2614 59.3885 88.8892L60.4248 89.9156H31.3634C23.8579 89.9156 17.8459 83.9605 17.8459 76.5259V73.1785C17.8459 65.744 23.8579 59.7889 31.3634 59.7889H88.8129C98.1048 59.7889 105.71 52.2558 105.71 43.0518V39.7044C105.71 30.5004 98.1048 22.9673 88.8129 22.9673H48.2603Z" fill="#080019"/>
<path fill-rule="evenodd" clip-rule="evenodd" d="M27.4349 16.3944C23.3288 12.3706 16.6712 12.3706 12.5651 16.3944C8.45925 20.4179 8.45925 26.941 12.5651 30.9645L20 38.2502L27.4349 30.9645C31.5408 26.941 31.5408 20.4179 27.4349 16.3944ZM8.68646 12.5922C14.9348 6.46926 25.0652 6.46926 31.3135 12.5922C37.5622 18.7155 37.5622 28.6434 31.3135 34.7666L23.2297 42.6883C21.4433 44.4388 18.5537 44.4359 16.7697 42.6877L8.68646 34.7666C2.43785 28.6434 2.43785 18.7155 8.68646 12.5922ZM20 21.496C18.7687 21.496 17.7714 22.474 17.7714 23.6794C17.7714 24.8848 18.7687 25.8628 20 25.8628C21.2313 25.8628 22.2286 24.8848 22.2286 23.6794C22.2286 22.474 21.2313 21.496 20 21.496ZM12.2857 23.6794C12.2857 19.5037 15.74 16.1195 20 16.1195C24.26 16.1195 27.7143 19.5037 27.7143 23.6794C27.7143 27.8551 24.26 31.2394 20 31.2394C15.74 31.2394 12.2857 27.8551 12.2857 23.6794Z" fill="#FF5600"/>
</svg>
