<svg width="118" height="118" viewBox="0 0 118 118" fill="none" xmlns="http://www.w3.org/2000/svg">
<path d="M95.0894 18.2112L90.2152 9.64781C89.7844 8.89104 89.0749 8.33879 88.2428 8.11246C87.4107 7.88614 86.5241 8.00428 85.7778 8.4409L9.80691 52.9355C9.43749 53.1519 9.11371 53.44 8.85407 53.7833C8.59443 54.1267 8.40401 54.5186 8.2937 54.9366C8.18338 55.3546 8.15533 55.7906 8.21114 56.2196C8.26696 56.6486 8.40554 57.0622 8.61898 57.4369L13.4931 66.0003C14.8795 65.1719 16.4139 64.6302 18.0078 64.4066C19.6016 64.1829 21.2233 64.2817 22.7793 64.6973C24.3353 65.1128 25.7948 65.8369 27.0734 66.8277C28.3521 67.8185 29.4246 69.0564 30.2292 70.4699C31.0337 71.8834 31.5543 73.4446 31.7609 75.0633C31.9675 76.682 31.856 78.3262 31.4328 79.9009C31.0096 81.4757 30.2832 82.9498 29.2954 84.2383C28.3076 85.5267 27.078 86.6039 25.6777 87.4077L29.7386 94.5436C30.385 95.6791 31.4495 96.5076 32.6981 96.8469C33.9467 97.1863 35.277 97.0086 36.3965 96.353L109.551 53.5065C110.67 52.8508 111.487 51.7709 111.822 50.5043C112.156 49.2377 111.981 47.8882 111.335 46.7526L107.272 39.6187C104.474 41.2575 101.148 41.7015 98.0269 40.853C94.9057 40.0044 92.2447 37.9329 90.6292 35.0941C89.0136 32.2553 88.576 28.8817 89.4124 25.7156C90.2489 22.5494 92.2909 19.85 95.0894 18.2112Z" fill="#C74300"/>
<path d="M112 67.3594V56.2357C112 55.2523 111.615 54.3092 110.929 53.6138C110.244 52.9185 109.314 52.5278 108.345 52.5278H9.65517C8.68576 52.5278 7.75605 52.9185 7.07057 53.6138C6.3851 54.3092 6 55.2523 6 56.2357V67.3594C9.63529 67.3594 13.1217 68.8243 15.6922 71.4319C18.2628 74.0395 19.7069 77.5762 19.7069 81.2639C19.7069 84.9517 18.2628 88.4884 15.6922 91.096C13.1217 93.7036 9.63529 95.1685 6 95.1685V104.438C6 105.913 6.57765 107.328 7.60586 108.371C8.63408 109.414 10.0286 110 11.4828 110H106.517C107.971 110 109.366 109.414 110.394 108.371C111.422 107.328 112 105.913 112 104.438V95.1685C108.365 95.1685 104.878 93.7036 102.308 91.096C99.7372 88.4884 98.2931 84.9517 98.2931 81.2639C98.2931 77.5762 99.7372 74.0395 102.308 71.4319C104.878 68.8243 108.365 67.3594 112 67.3594Z" fill="#FF5600"/>
<path d="M62.6551 76.629C65.6832 76.629 68.1379 74.1389 68.1379 71.0672C68.1379 67.9955 65.6832 65.5054 62.6551 65.5054C59.6271 65.5054 57.1724 67.9955 57.1724 71.0672C57.1724 74.1389 59.6271 76.629 62.6551 76.629Z" fill="white"/>
<path d="M84.5862 98.8763C87.6142 98.8763 90.0689 96.3862 90.0689 93.3145C90.0689 90.2428 87.6142 87.7527 84.5862 87.7527C81.5581 87.7527 79.1034 90.2428 79.1034 93.3145C79.1034 96.3862 81.5581 98.8763 84.5862 98.8763Z" fill="white"/>
<path d="M59.9138 96.0955C59.5546 95.731 59.27 95.2982 59.0764 94.8217C58.8827 94.3453 58.7838 93.8348 58.7854 93.3194C58.7869 92.8041 58.8888 92.2942 59.0853 91.819C59.2818 91.3437 59.5689 90.9126 59.9302 90.5503L82.002 68.4458C82.6914 67.7704 83.6147 67.3966 84.573 67.4051C85.5314 67.4135 86.4482 67.8035 87.1259 68.491C87.8036 69.1784 88.188 70.1084 88.1963 71.0806C88.2046 72.0528 87.8362 72.9894 87.1704 73.6887L65.3801 96.0788C65.023 96.4453 64.598 96.7366 64.1295 96.9359C63.661 97.1352 63.1584 97.2386 62.6504 97.2402C62.1424 97.2417 61.6391 97.1414 61.1694 96.945C60.6998 96.7485 60.2731 96.4598 59.9138 96.0955ZM42.5517 59.9436C43.0364 59.9436 43.5013 59.7483 43.844 59.4006C44.1867 59.0529 44.3793 58.5814 44.3793 58.0897V52.5278H40.7241V58.0897C40.7241 58.5814 40.9167 59.0529 41.2594 59.4006C41.6021 59.7483 42.067 59.9436 42.5517 59.9436ZM42.5517 78.483C43.0364 78.483 43.5013 78.2877 43.844 77.94C44.1867 77.5923 44.3793 77.1208 44.3793 76.6291V67.3594C44.3793 66.8677 44.1867 66.3961 43.844 66.0484C43.5013 65.7008 43.0364 65.5054 42.5517 65.5054C42.067 65.5054 41.6021 65.7008 41.2594 66.0484C40.9167 66.3961 40.7241 66.8677 40.7241 67.3594V76.6291C40.7241 77.1208 40.9167 77.5923 41.2594 77.94C41.6021 78.2877 42.067 78.483 42.5517 78.483ZM42.5517 97.0225C43.0364 97.0225 43.5013 96.8271 43.844 96.4795C44.1867 96.1318 44.3793 95.6602 44.3793 95.1685V85.8988C44.3793 85.4071 44.1867 84.9355 43.844 84.5879C43.5013 84.2402 43.0364 84.0449 42.5517 84.0449C42.067 84.0449 41.6021 84.2402 41.2594 84.5879C40.9167 84.9355 40.7241 85.4071 40.7241 85.8988V95.1685C40.7241 95.6602 40.9167 96.1318 41.2594 96.4795C41.6021 96.8271 42.067 97.0225 42.5517 97.0225ZM42.5517 102.584C42.067 102.584 41.6021 102.78 41.2594 103.127C40.9167 103.475 40.7241 103.947 40.7241 104.438V110H44.3793V104.438C44.3793 103.947 44.1867 103.475 43.844 103.127C43.5013 102.78 43.0364 102.584 42.5517 102.584Z" fill="white"/>
</svg>
