<svg width="118" height="118" viewBox="0 0 118 118" fill="none" xmlns="http://www.w3.org/2000/svg">
<path d="M60.6332 80.6702L79.6887 114L88.3999 96.2352L108 97.5002L88.9443 64.1702L60.6332 80.6702Z" fill="#FF5600"/>
<path d="M57.3667 80.6702L38.3111 114L29.6 96.2352L10 97.5002L29.0556 64.1702L57.3667 80.6702Z" fill="#FF5600"/>
<path d="M59 81C80.0482 81 97.1112 63.763 97.1112 42.5C97.1112 21.237 80.0482 4 59 4C37.9518 4 20.8889 21.237 20.8889 42.5C20.8889 63.763 37.9518 81 59 81Z" fill="#FFD100"/>
<path d="M60.6333 27.76L64.7166 36.065L73.7544 37.385C74.097 37.4338 74.4192 37.5786 74.6845 37.803C74.9497 38.0274 75.1474 38.3224 75.2551 38.6545C75.3628 38.9866 75.3762 39.3426 75.2938 39.6821C75.2114 40.0215 75.0365 40.3309 74.7889 40.575L68.2011 47.01L69.8889 56.085C69.9468 56.4271 69.9093 56.7788 69.7806 57.1006C69.6519 57.4224 69.4371 57.7017 69.1602 57.9072C68.8833 58.1127 68.5553 58.2363 68.2128 58.2642C67.8703 58.2921 67.527 58.2231 67.2211 58.065L59 53.775L50.8877 58.065C50.5819 58.2231 50.2385 58.2921 49.896 58.2642C49.5535 58.2363 49.2255 58.1127 48.9486 57.9072C48.6717 57.7017 48.4569 57.4224 48.3282 57.1006C48.1995 56.7788 48.162 56.4271 48.22 56.085L49.7988 47.01L43.2111 40.575C42.9635 40.3309 42.7885 40.0215 42.7061 39.6821C42.6237 39.3426 42.6371 38.9866 42.7448 38.6545C42.8525 38.3224 43.0502 38.0274 43.3155 37.803C43.5807 37.5786 43.9029 37.4338 44.2455 37.385L53.5555 36.065L57.6388 27.76C57.8027 27.5104 58.0252 27.3056 58.2865 27.164C58.5477 27.0224 58.8396 26.9482 59.1361 26.9482C59.4326 26.9482 59.7244 27.0224 59.9857 27.164C60.2469 27.3056 60.4694 27.5104 60.6333 27.76Z" fill="#FAA307"/>
</svg>
