<svg width="20" height="20" viewBox="0 0 20 20" fill="none" xmlns="http://www.w3.org/2000/svg">
<path d="M1 16.5963V7.66667C1 6.99796 1.3342 6.3735 1.8906 6.00257L8.8906 1.3359C9.5624 0.888033 10.4376 0.888034 11.1094 1.3359L18.1094 6.00257C18.6658 6.3735 19 6.99796 19 7.66667V16.5963M1 16.5963C1 17.7009 1.89543 18.5963 3 18.5963H17C18.1046 18.5963 19 17.7009 19 16.5963M1 16.5963L7.75 12.0963M19 16.5963L12.25 12.0963M1 7.5963L7.75 12.0963M19 7.5963L12.25 12.0963M12.25 12.0963L11.1094 12.8567C10.4376 13.3046 9.5624 13.3046 8.8906 12.8567L7.75 12.0963" stroke="white" stroke-width="2" stroke-linecap="round" stroke-linejoin="round"/>
</svg>
