<svg width="22" height="21" viewBox="0 0 22 21" fill="none" xmlns="http://www.w3.org/2000/svg">
<path d="M4.22335 0.8125C3.72607 0.8125 3.24916 1.01004 2.89752 1.36167L1.59835 2.66085C0.133883 4.12532 0.133883 6.49968 1.59835 7.96415C2.93551 9.30131 5.03124 9.41755 6.50029 8.31288C7.12669 8.78313 7.90598 9.0625 8.75 9.0625C9.59415 9.0625 10.3736 8.78305 11 8.31266C11.6264 8.78305 12.4059 9.0625 13.25 9.0625C14.094 9.0625 14.8733 8.78313 15.4997 8.31288C16.9688 9.41755 19.0645 9.30131 20.4016 7.96415C21.8661 6.49968 21.8661 4.12532 20.4016 2.66085L19.1025 1.36168C18.7508 1.01005 18.2739 0.812504 17.7767 0.812504L4.22335 0.8125Z" fill="black"/>
<path fill-rule="evenodd" clip-rule="evenodd" d="M2 18.8125V10.0576C3.42021 10.7311 5.0799 10.7306 6.50044 10.0569C7.18265 10.3808 7.94611 10.5625 8.75 10.5625C9.55406 10.5625 10.3177 10.3807 11 10.0567C11.6823 10.3807 12.4459 10.5625 13.25 10.5625C14.0539 10.5625 14.8173 10.3808 15.4996 10.0569C16.9201 10.7306 18.5798 10.7311 20 10.0576V18.8125H20.75C21.1642 18.8125 21.5 19.1483 21.5 19.5625C21.5 19.9767 21.1642 20.3125 20.75 20.3125H1.25C0.835786 20.3125 0.5 19.9767 0.5 19.5625C0.5 19.1483 0.835786 18.8125 1.25 18.8125H2ZM5 12.8125C5 12.3983 5.33579 12.0625 5.75 12.0625H8.75C9.16421 12.0625 9.5 12.3983 9.5 12.8125V15.8125C9.5 16.2267 9.16421 16.5625 8.75 16.5625H5.75C5.33579 16.5625 5 16.2267 5 15.8125V12.8125ZM13.25 12.0625C12.8358 12.0625 12.5 12.3983 12.5 12.8125V18.0625C12.5 18.4767 12.8358 18.8125 13.25 18.8125H16.25C16.6642 18.8125 17 18.4767 17 18.0625V12.8125C17 12.3983 16.6642 12.0625 16.25 12.0625H13.25Z" fill="black"/>
</svg>
