<svg width="34" height="34" viewBox="0 0 34 34" fill="none" xmlns="http://www.w3.org/2000/svg">
<rect width="34" height="34" rx="4" fill="white"/>
<path d="M27 10.8C26.2483 11.1261 25.4534 11.3417 24.64 11.44C25.4982 10.9273 26.1413 10.1208 26.45 9.17003C25.6436 9.65009 24.7608 9.98832 23.84 10.17C23.2245 9.5026 22.405 9.05832 21.5098 8.90688C20.6147 8.75543 19.6945 8.90538 18.8938 9.33322C18.093 9.76105 17.4569 10.4426 17.0852 11.2709C16.7135 12.0992 16.6273 13.0274 16.84 13.91C15.2094 13.8276 13.6144 13.403 12.1587 12.6639C10.7029 11.9248 9.41885 10.8877 8.39 9.62003C8.02914 10.2502 7.83952 10.9638 7.84 11.69C7.83872 12.3644 8.00422 13.0286 8.32176 13.6236C8.63929 14.2185 9.09902 14.7257 9.66 15.1C9.00798 15.0823 8.36989 14.9073 7.8 14.59V14.64C7.80489 15.5849 8.13599 16.4991 8.73731 17.228C9.33864 17.9569 10.1733 18.4557 11.1 18.64C10.7433 18.7486 10.3729 18.8058 10 18.81C9.74189 18.807 9.48442 18.7836 9.23 18.74C9.49391 19.5528 10.0046 20.2632 10.6911 20.7722C11.3775 21.2812 12.2056 21.5636 13.06 21.58C11.6172 22.7153 9.83588 23.3349 8 23.34C7.66574 23.3411 7.33174 23.3211 7 23.28C8.87443 24.4903 11.0588 25.1327 13.29 25.13C14.8297 25.146 16.3571 24.855 17.7831 24.2741C19.2091 23.6932 20.505 22.8339 21.5952 21.7465C22.6854 20.6591 23.548 19.3654 24.1326 17.9409C24.7172 16.5164 25.012 14.9898 25 13.45C25 13.28 25 13.1 25 12.92C25.7847 12.3348 26.4615 11.6175 27 10.8Z" fill="#080019"/>
</svg>
